<svg width="31" height="31" viewBox="0 0 31 31" fill="none" xmlns="http://www.w3.org/2000/svg">
<path id="Vector" d="M15.1621 30.3517C16.151 30.3517 16.9613 29.6239 17.0986 28.5937C18.4582 19.4196 19.7079 18.1423 28.5252 17.1398C29.5414 17.0162 30.3242 16.1648 30.3242 15.1759C30.3242 14.1733 29.5552 13.3493 28.5388 13.1982C19.7767 11.9759 18.6918 10.9046 17.0986 1.74427C16.92 0.72795 16.1372 0 15.1621 0C14.1596 0 13.3629 0.72795 13.1982 1.75793C11.866 10.9184 10.6163 12.1957 1.81284 13.1982C0.769069 13.3356 0 14.1596 0 15.1759C0 16.1648 0.741611 16.9887 1.78538 17.1398C10.5612 18.3896 11.6325 19.447 13.1982 28.6075C13.4042 29.6375 14.2007 30.3517 15.1621 30.3517Z" fill="#FA5D31"/>
</svg>
