<svg width="32" height="32" viewBox="0 0 32 32" fill="none" xmlns="http://www.w3.org/2000/svg">
<rect x="2" y="6" width="28" height="22" rx="6" fill="#FA5D31"/>
<path d="M19.1784 31.8289L15.35 24.9397L7.59556 26.4677L12.8442 19.5638L9.96376 12.0599L17.036 14.6823L23.0102 8.51657L22.1324 17.0412L28.7052 20.7345L21.0904 23.3806L19.1784 31.8289Z" fill="#FA5D31"/>
<path d="M8 13V23.0649H10.6482V16.0126L11.4108 23.0649H14.991L15.7536 16.0126V23.0649H18.4018V13H13.7623L13.201 18.4708L12.6394 13H8Z" fill="#FDFDFD"/>
<path d="M24.9998 23.0649V20.0425H21.8965V19.5487H24.3644V16.5263H21.8965V16.0224H24.9998V13H18.7186V23.0649H24.9998Z" fill="#FDFDFD"/>
<ellipse cx="20.006" cy="5.38224" rx="3" ry="3.21339" transform="rotate(38.4783 20.006 5.38224)" fill="white"/>
<ellipse cx="15.3616" cy="3.39938" rx="3" ry="3.23529" transform="rotate(38.4783 15.3616 3.39938)" fill="white"/>
<ellipse cx="15.8819" cy="3.25401" rx="1.5" ry="1.68703" transform="rotate(38.4783 15.8819 3.25401)" fill="#080707"/>
<ellipse cx="19.8819" cy="5.25401" rx="1.5" ry="1.68703" transform="rotate(38.4783 19.8819 5.25401)" fill="#080707"/>
<ellipse cx="15.343" cy="9.72951" rx="2.5" ry="2.77701" transform="rotate(38.4783 15.343 9.72951)" fill="#080707"/>
<path d="M15.0247 7.453C15.1416 7.20282 15.4391 7.09478 15.6893 7.21169L16.5953 7.63508C16.8454 7.75199 16.9535 8.04958 16.8366 8.29977L16.4135 9.20533C16.2966 9.45551 15.9991 9.56355 15.7489 9.44663L14.843 9.02325C14.5928 8.90634 14.4847 8.60874 14.6016 8.35856L15.0247 7.453Z" fill="#FFFEFE"/>
</svg>
