<svg xmlns="http://www.w3.org/2000/svg" width="32" height="27" viewBox="0 0 32 27" fill="none">
<path d="M30.2496 18.1675H32L29.7111 15.7888C26.4348 12.3779 21.9018 10.448 17.1445 10.448H16.6059H15.439H14.8555C10.1431 10.448 5.6101 12.3779 2.28892 15.7888L0 18.1675H1.75035C6.46283 18.1675 10.9958 16.2376 14.317 12.8267L16.0224 11.0763C15.0351 17.0904 6.46283 26.6051 6.46283 26.6051H16.0673H25.6718C25.6718 26.6051 17.1893 17.225 16.1122 11.211L17.683 12.8716C20.9593 16.2376 25.4923 18.1675 30.2496 18.1675Z" fill="#047BE9"/>
<path d="M14.5864 6.94741L15.9777 5.51123L17.369 6.94741C20.0618 9.7749 23.8318 11.3457 27.7364 11.3457H29.1726L27.2876 9.37097C24.5948 6.54349 20.8248 4.97266 16.9202 4.97266H16.4714H15.484H15.0352C11.1305 4.97266 7.40544 6.54349 4.66771 9.37097L2.78271 11.3906H4.2189C8.12353 11.3906 11.8935 9.7749 14.5864 6.94741Z" fill="#047BE9"/>
<path d="M14.8555 2.01048L15.9775 0.843583L17.0995 2.01048C19.2987 4.2994 22.3506 5.60095 25.5371 5.60095H26.704L25.178 3.98524C22.9789 1.69632 19.927 0.394775 16.7405 0.394775H16.3814H15.5736H15.2145C12.028 0.394775 8.97608 1.69632 6.77692 3.98524L5.25098 5.60095H6.41788C9.60441 5.60095 12.6563 4.2994 14.8555 2.01048Z" fill="#047BE9"/>
</svg>