<svg width="1278" height="571" viewBox="0 0 1278 571" fill="none" xmlns="http://www.w3.org/2000/svg">
<rect y="106" width="440" height="406.974" rx="80" fill="#FA5D31"/>
<path d="M282.711 570.761L247.995 498.391L180.791 510.679L225.097 442.128L198.51 363.865L260.609 393.868L311.381 333.21L305.455 420.304L363.421 461.079L297.658 484.902L282.711 570.761Z" fill="#FA5D31"/>
<path d="M82 227V390.683H125.066V275.993L137.468 390.683H195.692L208.094 275.993V390.683H251.16V227H175.711L166.582 315.97L157.449 227H82Z" fill="#FDFDFD"/>
<path d="M358.466 390.683V341.53H307.998V333.5H348.132V284.347H307.998V276.153H358.466V227H256.316V390.683H358.466Z" fill="#FDFDFD"/>
<ellipse cx="281.09" cy="102.523" rx="51.2194" ry="54.8627" transform="rotate(38.4783 281.09 102.523)" fill="white"/>
<ellipse cx="195.354" cy="54.2432" rx="51" ry="55" transform="rotate(38.4783 195.354 54.2432)" fill="white"/>
<ellipse cx="205.161" cy="60.8595" rx="29.2682" ry="32.9176" transform="rotate(38.4783 205.161 60.8595)" fill="#080707"/>
<ellipse cx="273.846" cy="99.88" rx="29.2682" ry="32.9176" transform="rotate(38.4783 273.846 99.88)" fill="#080707"/>
<ellipse cx="201.453" cy="149.8" rx="32.9268" ry="36.5751" transform="rotate(38.4783 201.453 149.8)" fill="#080707"/>
<path d="M202.363 116.334C203.298 114.332 205.678 113.468 207.679 114.403L224.737 122.375C226.739 123.311 227.603 125.691 226.668 127.693L218.701 144.746C217.766 146.747 215.386 147.612 213.384 146.676L196.326 138.704C194.325 137.769 193.461 135.388 194.396 133.387L202.363 116.334Z" fill="#FFFEFE"/>
<path d="M574 366.491V444.338H721.537V366.491H647.531L721.537 262.105V184.258H574V262.105H636.998L574 366.491Z" fill="#010100"/>
<path d="M705.602 184V444.337H775.861V393.312L798.109 444.337H869.762L827.144 346.709L869.762 249.081H798.109L775.861 300.107V184H705.602Z" fill="#010100"/>
<path d="M943.991 448.243C996.91 448.243 1035.32 407.367 1035.32 346.708C1035.32 286.05 996.91 245.173 943.991 245.173C889.658 245.173 852.655 287.611 852.655 346.708C852.655 407.367 891.062 448.243 943.991 448.243ZM924.086 346.45C924.086 332.911 932.044 324.064 943.991 324.064C955.928 324.064 964.129 332.911 964.129 346.45C964.129 359.732 955.928 368.578 943.991 368.578C931.812 368.578 924.086 359.732 924.086 346.45Z" fill="#010100"/>
<path d="M1018.21 444.336H1088.47V342.284C1088.47 333.426 1088.47 326.668 1095.49 326.668H1117.5V249.08H1090.11C1051.7 249.08 1018.21 272.51 1018.21 324.063V444.336Z" fill="#010100"/>
<path d="M1100.4 346.71C1100.4 407.368 1138.81 444.338 1191.74 444.338C1244.66 444.338 1271.83 444.338 1271.83 444.338V366.233C1271.83 366.233 1198.53 366.233 1191.74 366.233C1179.09 366.233 1170.9 362.596 1170.9 354.524H1275.34C1287.52 296.47 1257.55 245.175 1191.97 245.175C1137.64 245.175 1100.4 287.612 1100.4 346.71ZM1191.74 313.389C1201.81 313.389 1209.77 318.598 1213.75 327.186H1169.96C1173.7 318.598 1181.67 313.389 1191.74 313.389Z" fill="#010100"/>
</svg>
